<svg width="22" height="12" viewBox="0 0 22 12" fill="none" xmlns="http://www.w3.org/2000/svg">
<path opacity="0.5" d="M2.50781 0.523438L5.80469 10.2969L9.0625 0.523438H10.8047L6.61719 12H4.96875L0.789062 0.523438H2.50781ZM17.6094 5.78125C18.3385 5.78125 18.9141 5.63542 19.3359 5.34375C19.763 5.05208 19.9766 4.52604 19.9766 3.76562C19.9766 2.94792 19.6797 2.39062 19.0859 2.09375C18.7682 1.9375 18.3438 1.85938 17.8125 1.85938H14.0156V5.78125H17.6094ZM12.4609 0.523438H17.7734C18.6484 0.523438 19.3698 0.651042 19.9375 0.90625C21.0156 1.39583 21.5547 2.29948 21.5547 3.61719C21.5547 4.30469 21.4115 4.86719 21.125 5.30469C20.8438 5.74219 20.4479 6.09375 19.9375 6.35938C20.3854 6.54167 20.7214 6.78125 20.9453 7.07812C21.1745 7.375 21.3021 7.85677 21.3281 8.52344L21.3828 10.0625C21.3984 10.5 21.4349 10.8255 21.4922 11.0391C21.5859 11.4036 21.7526 11.638 21.9922 11.7422V12H20.0859C20.0339 11.901 19.9922 11.7734 19.9609 11.6172C19.9297 11.4609 19.9036 11.1589 19.8828 10.7109L19.7891 8.79688C19.7526 8.04688 19.474 7.54427 18.9531 7.28906C18.6562 7.14844 18.1901 7.07812 17.5547 7.07812H14.0156V12H12.4609V0.523438Z" fill="black"/>
</svg>
